<svg xmlns="http://www.w3.org/2000/svg" viewBox="0 0 420 300" width="420" height="300">
  <rect width="420" height="300" rx="12" fill="#eef1fa"/>
  <g transform="translate(110,50) scale(1.0)">
    
  <rect width="200" height="200" fill="none"/>
  <path d="M28 132 C40 108 62 100 84 104 C100 107 108 96 124 92 C146 86 168 100 172 122 L174 138 C175 146 169 152 161 152 L40 152 C32 152 26 145 28 132 Z"
        fill="#2456f5"/>
  <path d="M26 138 L175 138 C176 149 169 158 158 158 L42 158 C31 158 25 149 26 138 Z" fill="#16307d"/>
  <path d="M92 106 C104 100 116 96 128 94" stroke="#c7d5ff" stroke-width="5" fill="none" stroke-linecap="round"/>
  <path d="M80 116 C94 110 108 106 122 104" stroke="#c7d5ff" stroke-width="5" fill="none" stroke-linecap="round"/>
  <circle cx="152" cy="124" r="9" fill="#c7d5ff" opacity="0.85"/>

  </g>
  <circle cx="70" cy="70" r="26" fill="#dfe5fa"/>
  <rect x="300" y="222" width="72" height="8" rx="4" fill="#cdd6f3"/>
</svg>
